<?xml version="1.0" standalone="no"?>
<!DOCTYPE svg PUBLIC "-//W3C//DTD SVG 20010904//EN"
 "http://www.w3.org/TR/2001/REC-SVG-20010904/DTD/svg10.dtd">
<svg version="1.0" xmlns="http://www.w3.org/2000/svg"
 width="1136.000000pt" height="685.000000pt" viewBox="0 0 1136.000000 685.000000"
 preserveAspectRatio="xMidYMid meet">

<g transform="translate(0.000000,685.000000) scale(0.100000,-0.100000)"
fill="#000000" stroke="none">
<path d="M1151 6341 c-27 -27 -36 -82 -22 -136 7 -27 11 -156 11 -340 0 -262
-2 -306 -20 -374 -11 -42 -21 -108 -24 -147 -2 -38 -15 -112 -29 -164 -37
-142 -77 -385 -77 -466 1 -93 68 -185 147 -200 39 -7 243 16 373 42 41 9 117
31 168 50 51 19 114 38 141 41 45 5 50 3 66 -21 10 -14 20 -46 23 -71 l5 -45
-80 0 c-86 0 -152 -18 -239 -64 -27 -14 -54 -26 -59 -26 -22 0 -198 -111 -247
-155 -176 -158 -298 -397 -387 -757 -17 -69 -23 -129 -26 -284 l-5 -196 -40
-45 c-44 -51 -92 -129 -131 -218 -15 -33 -47 -94 -71 -137 -25 -42 -50 -103
-57 -135 -7 -32 -24 -85 -38 -118 -14 -32 -34 -95 -45 -139 -37 -146 -8 -289
78 -384 24 -28 44 -58 44 -69 0 -32 29 -63 59 -63 16 0 31 -6 34 -14 3 -7 25
-23 50 -35 42 -20 56 -21 300 -19 241 3 257 4 284 24 l27 21 61 -25 c73 -30
165 -39 234 -22 29 7 53 11 55 9 2 -2 -7 -69 -20 -149 -26 -163 -29 -250 -13
-333 20 -100 64 -118 225 -91 l60 10 12 -49 c21 -90 141 -232 216 -257 21 -7
100 -12 184 -13 142 -2 150 -1 238 30 50 18 99 33 109 33 10 0 37 11 59 24 23
13 68 32 101 41 261 74 338 102 465 168 205 106 337 191 420 272 41 40 102 92
135 115 33 24 75 56 92 73 31 29 33 30 52 13 33 -30 73 -17 94 28 11 22 38 64
62 93 43 53 65 86 161 253 l49 85 7 -135 c13 -239 23 -773 16 -823 -4 -27 -22
-78 -40 -115 -28 -57 -33 -78 -33 -139 0 -63 3 -76 30 -114 52 -74 127 -111
192 -94 35 8 92 70 142 154 61 103 63 131 59 731 -3 499 -5 528 -24 582 l-21
57 61 20 c34 11 78 24 99 30 l37 9 0 -503 c0 -497 0 -504 -24 -596 -13 -52
-40 -136 -60 -186 -40 -102 -45 -156 -20 -209 19 -39 92 -107 145 -134 50 -26
149 -50 204 -50 81 0 121 63 145 230 5 36 10 304 10 595 1 455 4 544 19 628
12 70 22 102 34 108 9 6 17 20 17 32 0 13 4 27 9 33 6 5 11 38 13 74 l3 65
125 7 c69 4 240 12 380 17 182 7 303 17 425 35 94 15 219 33 278 41 60 8 112
17 117 20 5 3 56 10 115 15 58 6 143 20 188 31 67 17 132 22 357 29 151 5 341
12 421 16 l146 7 7 -29 c3 -16 10 -175 15 -354 8 -263 7 -329 -4 -350 -7 -14
-45 -47 -83 -75 -91 -64 -122 -111 -122 -182 0 -107 37 -155 202 -264 115 -76
169 -93 217 -67 27 15 91 123 129 218 l26 65 6 512 c3 281 7 513 10 516 4 4
192 27 220 27 18 0 13 -568 -6 -710 -23 -178 -29 -195 -71 -227 -78 -59 -113
-99 -113 -131 0 -89 216 -246 314 -228 19 4 76 35 127 69 70 47 101 74 124
111 l30 50 1 559 1 560 53 14 c30 7 88 29 129 47 136 61 328 95 430 76 134
-24 165 -40 421 -210 80 -54 177 -115 215 -137 39 -22 111 -65 160 -95 93 -57
237 -119 315 -137 25 -6 88 -28 140 -49 53 -21 119 -42 147 -46 45 -6 55 -4
73 14 11 11 20 31 20 44 0 13 -34 75 -76 137 -42 63 -85 132 -96 153 -11 21
-59 80 -107 130 -165 173 -465 630 -485 741 -4 22 -14 47 -22 56 -15 16 -11
46 26 194 5 22 10 94 10 160 0 125 4 144 70 360 16 50 42 155 60 235 17 79 49
196 70 260 83 248 110 342 116 397 5 50 4 60 -14 77 -27 24 -69 14 -84 -19 -7
-15 -20 -25 -32 -25 -30 0 -41 -10 -68 -55 -21 -35 -100 -159 -162 -252 -31
-48 -255 -331 -266 -338 -6 -4 -33 -39 -60 -80 -45 -66 -58 -78 -137 -123 -86
-48 -90 -49 -198 -56 -60 -4 -150 -14 -200 -22 -49 -8 -159 -19 -243 -24 -85
-5 -188 -14 -230 -20 -43 -6 -136 -9 -212 -6 -74 2 -443 9 -820 15 -377 5
-759 12 -850 14 -91 3 -239 1 -329 -4 -91 -5 -167 -6 -170 -4 -2 3 5 50 17
106 15 70 38 137 77 220 61 130 170 378 273 619 76 181 88 244 52 280 -19 19
-30 22 -75 17 -88 -9 -187 -63 -380 -209 -179 -135 -204 -159 -415 -398 -103
-116 -231 -252 -281 -297 l-37 -33 -37 22 c-20 13 -73 47 -118 77 -45 29 -122
73 -172 98 -49 24 -139 77 -200 118 -66 44 -166 98 -248 134 -76 34 -140 61
-143 61 -3 0 -25 13 -48 30 -24 16 -131 73 -237 126 -107 54 -225 118 -264
144 -83 55 -354 198 -466 245 -44 18 -101 49 -129 69 -59 42 -209 119 -300
153 -36 14 -128 58 -205 98 -77 40 -189 90 -250 110 -60 21 -137 50 -170 66
-77 36 -178 77 -235 94 -266 82 -385 116 -440 126 -36 7 -123 34 -195 61 -295
112 -748 258 -802 258 -7 0 -22 -9 -32 -19z m363 -202 c121 -44 291 -109 379
-145 88 -35 216 -78 286 -95 69 -17 160 -42 201 -55 41 -13 108 -30 148 -39
40 -8 87 -22 104 -31 17 -9 54 -23 82 -31 28 -8 66 -24 84 -35 18 -11 89 -40
157 -63 76 -26 174 -70 255 -115 73 -41 174 -90 224 -111 152 -61 223 -96 283
-139 32 -22 104 -60 159 -84 56 -24 140 -66 186 -94 46 -27 105 -58 130 -69
25 -11 83 -47 129 -78 46 -32 163 -97 259 -144 96 -48 193 -99 215 -114 22
-15 76 -41 120 -58 140 -54 257 -114 375 -190 63 -42 144 -89 180 -106 36 -16
102 -54 147 -84 134 -89 149 -97 200 -104 46 -6 53 -4 96 29 52 39 155 142
401 400 142 149 196 197 340 304 196 147 246 179 246 161 0 -18 -83 -201 -200
-444 -154 -319 -177 -377 -201 -514 -24 -138 -21 -176 20 -215 l30 -28 663 -5
c365 -2 830 -9 1033 -15 204 -6 433 -13 510 -15 98 -3 167 1 231 11 50 9 145
16 211 16 78 0 158 7 229 20 60 11 171 27 247 35 124 13 144 18 200 49 34 18
73 36 87 39 16 4 46 33 80 78 64 83 92 117 258 315 112 132 142 170 178 230 7
11 -4 -26 -23 -81 -19 -55 -54 -174 -78 -265 -24 -91 -51 -185 -59 -209 -9
-24 -28 -92 -43 -150 -24 -93 -27 -122 -25 -235 2 -108 -2 -150 -24 -257 l-27
-128 27 -31 c14 -17 26 -44 26 -59 0 -92 349 -662 491 -801 42 -41 84 -89 92
-106 9 -17 32 -52 52 -78 19 -25 32 -46 30 -46 -3 0 -23 9 -44 20 -21 10 -60
24 -87 31 -136 33 -281 114 -615 345 -210 144 -313 199 -434 229 -96 25 -97
25 -233 10 -168 -19 -275 -44 -367 -85 -74 -34 -254 -69 -352 -70 -50 0 -53 1
-53 25 0 59 -94 55 -106 -4 -5 -23 -14 -32 -38 -38 -17 -4 -200 -6 -406 -5
-234 2 -409 -1 -465 -8 -49 -6 -196 -15 -325 -19 -205 -8 -248 -12 -335 -35
-55 -14 -125 -29 -155 -32 -30 -3 -98 -12 -150 -20 -282 -42 -546 -66 -816
-74 -155 -4 -285 -10 -290 -13 -5 -3 -88 -10 -184 -16 -193 -13 -294 -26 -355
-48 -46 -16 -103 -33 -260 -74 -60 -15 -155 -42 -210 -59 -55 -16 -101 -30
-102 -30 -2 0 -3 13 -3 29 0 56 -52 79 -90 41 -15 -15 -20 -33 -20 -69 0 -44
-3 -50 -29 -60 -48 -20 -87 -70 -164 -211 -74 -134 -75 -135 -134 -165 -33
-17 -94 -60 -134 -96 -41 -36 -101 -84 -134 -106 -33 -22 -96 -74 -140 -114
-99 -92 -201 -157 -377 -243 -131 -63 -174 -79 -408 -147 -58 -17 -124 -42
-146 -55 -23 -13 -75 -35 -115 -48 -41 -13 -92 -31 -114 -40 -53 -20 -252 -22
-299 -2 -33 14 -86 71 -125 136 -18 30 -21 51 -21 151 l0 116 41 56 c22 32 49
77 60 101 25 58 150 166 294 256 61 38 142 95 180 127 39 32 90 74 115 92 69
53 119 102 153 151 17 25 63 79 102 120 39 41 82 93 95 115 13 22 90 119 170
216 80 97 172 212 205 255 70 91 439 464 508 513 37 27 47 40 47 62 0 16 5 39
11 53 20 43 4 68 -68 111 -38 21 -85 53 -106 70 -73 57 -562 385 -675 451
-100 59 -116 72 -137 113 -24 49 -123 148 -197 199 -50 34 -73 42 -233 81
-156 38 -171 44 -225 94 -26 23 -73 58 -106 78 -60 38 -224 149 -394 269 -105
74 -441 287 -535 340 -62 35 -175 134 -175 154 0 6 10 29 22 51 21 39 22 49
22 390 1 193 -3 363 -7 379 -8 27 -7 28 20 22 15 -4 127 -43 247 -87z m-109
-1080 c273 -174 425 -274 425 -281 0 -5 -18 -8 -40 -8 -22 0 -79 -14 -128 -31
-146 -52 -172 -59 -317 -84 -189 -34 -199 -33 -219 9 -18 39 -20 68 -7 128 6
24 17 97 27 163 9 66 23 150 31 187 l16 68 36 -31 c20 -18 99 -72 176 -120z
m663 -428 c31 -21 89 -64 127 -95 139 -110 252 -194 339 -251 l90 -59 -30 -9
c-16 -6 -78 -43 -139 -83 -199 -131 -296 -174 -323 -142 -11 13 -20 62 -62
338 -28 179 -47 281 -59 313 -6 15 -8 27 -5 27 3 0 31 -18 62 -39z m-144 -249
c3 -5 21 -96 41 -203 43 -234 40 -222 77 -265 40 -45 91 -59 166 -44 67 14
235 100 344 176 l77 55 15 -53 c8 -29 27 -120 41 -203 49 -281 103 -467 152
-525 35 -42 58 -53 129 -59 l61 -6 -44 -145 c-24 -80 -56 -183 -69 -230 -33
-108 -88 -268 -116 -332 -18 -42 -24 -49 -42 -43 -115 34 -216 55 -242 50 -34
-6 -78 -46 -92 -86 -6 -14 -13 -52 -17 -85 -4 -32 -13 -88 -22 -124 -25 -111
-63 -314 -63 -337 0 -14 -10 -28 -27 -36 -24 -13 -30 -12 -68 12 -24 14 -62
53 -86 85 -58 78 -86 104 -131 118 -52 15 -103 2 -148 -38 -41 -37 -63 -84
-95 -206 l-17 -66 -64 -16 c-87 -22 -155 -20 -215 5 -39 17 -50 27 -48 43 3
38 -1 45 -26 62 -23 15 -27 15 -50 0 -14 -9 -29 -33 -35 -55 -5 -21 -16 -43
-23 -49 -7 -5 -114 -12 -244 -14 -291 -7 -291 -6 -198 96 79 87 120 155 140
231 27 106 21 137 -48 245 -144 227 -163 250 -189 234 -12 -8 -14 -12 35 91
77 162 103 207 146 258 23 28 47 61 51 73 5 11 9 79 9 150 2 148 14 286 31
329 6 16 17 57 25 90 54 233 156 432 304 588 53 57 151 118 286 181 114 52
124 55 202 56 45 0 84 -4 87 -8z m1003 -310 c21 -16 65 -44 98 -62 33 -18 67
-38 75 -45 8 -7 42 -28 75 -46 33 -18 105 -62 160 -97 55 -36 139 -89 188
-119 48 -30 87 -58 87 -63 0 -12 -87 -87 -139 -121 -25 -16 -76 -35 -120 -44
-124 -26 -163 -38 -206 -61 -38 -21 -132 -44 -181 -44 -12 0 -30 7 -38 15 -31
32 -83 232 -115 450 -10 66 -51 254 -66 302 -7 22 -6 21 69 -6 41 -16 92 -42
113 -59z m862 -540 c36 -26 90 -61 119 -77 29 -16 51 -32 50 -36 -2 -4 -22
-22 -45 -40 -23 -19 -81 -67 -128 -107 l-85 -73 -136 -5 c-75 -3 -170 -12
-212 -21 -83 -17 -189 -20 -202 -7 -5 5 -1 39 8 76 l16 68 50 14 c28 8 81 19
118 25 36 6 86 18 109 27 48 16 162 100 224 163 21 23 41 41 44 41 2 0 34 -22
70 -48z m-300 -549 c-53 -54 -115 -123 -139 -153 -25 -30 -85 -102 -135 -160
-51 -58 -113 -132 -140 -165 l-48 -60 6 65 c4 36 16 113 27 170 12 58 25 162
29 232 5 70 12 131 15 136 3 5 33 3 72 -6 62 -14 71 -13 157 7 103 23 130 27
202 30 l50 1 -96 -97z m5407 -998 c-3 -462 -6 -538 -19 -559 -19 -29 -150
-116 -174 -116 -31 0 -163 85 -163 105 0 2 22 20 50 40 66 48 98 114 116 242
8 54 19 132 25 173 7 46 10 182 8 355 l-4 280 50 6 c28 3 65 7 83 7 l32 2 -4
-535z m-5990 448 c-11 -11 -19 6 -11 24 8 17 8 17 12 0 3 -10 2 -21 -1 -24z
m5369 -5 c-3 -24 -10 -259 -13 -524 l-7 -481 -43 -86 c-24 -48 -47 -87 -51
-87 -5 0 -23 11 -42 23 -206 143 -208 145 -209 209 0 35 5 41 73 91 40 30 85
68 100 86 48 57 50 86 39 441 -6 179 -14 335 -18 348 -6 22 -5 22 86 22 l92 0
-7 -42z m-5580 -23 c22 -7 75 -32 118 -54 43 -23 87 -41 98 -41 16 0 9 -13
-38 -72 -104 -130 -166 -185 -255 -228 -46 -23 -100 -54 -120 -71 l-38 -30 6
93 c3 51 14 136 24 188 11 52 22 120 25 150 3 30 8 67 11 81 l5 26 62 -14 c34
-8 80 -20 102 -28z m2621 -195 c-3 -22 -15 -49 -26 -60 -11 -11 -20 -31 -20
-44 0 -13 -11 -80 -25 -148 -24 -122 -24 -136 -28 -699 -3 -441 -7 -584 -17
-618 l-13 -43 -44 6 c-97 13 -213 92 -213 144 0 13 13 54 29 90 40 91 78 221
92 312 8 52 10 225 7 561 l-5 487 71 21 c82 23 106 28 160 30 l39 1 -7 -40z
m-656 -147 c7 -84 -2 -1182 -10 -1212 -10 -36 -89 -161 -102 -161 -4 0 -21 12
-38 27 -49 44 -50 88 -7 181 20 42 41 101 47 131 15 80 12 503 -5 686 -13 141
-20 335 -12 335 1 0 27 9 57 20 70 25 67 25 70 -7z m-2624 -138 c26 -35 76
-87 111 -116 34 -28 63 -55 63 -60 0 -5 10 -9 23 -9 18 0 7 -14 -56 -72 -60
-54 -87 -88 -111 -137 -29 -58 -71 -129 -173 -291 -51 -81 -103 -63 -103 37 0
64 44 367 61 420 6 18 21 81 35 139 27 121 44 154 78 154 18 0 36 -16 72 -65z"/>
<path d="M2716 5485 c-49 -17 -122 -88 -137 -133 -6 -19 -9 -55 -6 -80 9 -82
83 -118 147 -72 16 11 32 29 35 40 4 11 15 20 25 20 37 0 97 31 109 56 27 60
4 142 -49 169 -36 18 -73 19 -124 0z"/>
<path d="M4490 3910 c-11 -11 -20 -25 -20 -30 0 -6 29 -68 64 -138 101 -202
119 -259 118 -373 0 -80 -6 -113 -32 -190 -17 -52 -47 -126 -67 -166 -40 -80
-38 -116 9 -143 35 -19 75 -1 84 37 4 15 15 39 24 53 21 30 85 197 99 260 15
66 13 213 -4 284 -16 64 -165 372 -197 406 -24 25 -53 25 -78 0z"/>
<path d="M5080 3820 c-22 -22 -22 -38 0 -180 5 -30 16 -120 25 -200 9 -80 22
-191 30 -246 20 -160 -7 -247 -112 -351 -62 -61 -71 -101 -28 -129 36 -24 70
-11 129 49 120 124 164 270 136 454 -59 377 -73 467 -81 522 -14 95 -53 127
-99 81z"/>
<path d="M5400 3730 c-30 -30 -25 -48 24 -94 24 -22 49 -52 56 -65 26 -51 40
-257 33 -494 l-6 -228 -34 -44 c-40 -52 -44 -96 -11 -119 35 -25 56 -19 99 27
74 79 74 75 77 343 4 254 -13 467 -42 536 -20 46 -56 93 -101 128 -44 35 -67
38 -95 10z"/>
<path d="M1300 3500 c-8 -5 -32 -10 -53 -10 -34 0 -40 -4 -54 -37 -9 -21 -18
-63 -21 -94 -4 -48 -1 -59 19 -83 53 -60 236 -56 283 7 29 39 29 115 0 154
-38 52 -137 87 -174 63z"/>
<path d="M2358 3435 c-60 -32 -78 -58 -78 -117 0 -64 30 -100 84 -100 26 0 46
7 64 24 15 14 43 34 63 46 64 38 76 97 30 143 -38 37 -95 39 -163 4z"/>
</g>
</svg>
